<svg
    xmlns="http://www.w3.org/2000/svg"
    viewBox="175 100 200 200">
    <g
        data-paper-data="{&quot;isIcon&quot;:&quot;true&quot;,&quot;iconType&quot;:&quot;icon&quot;,&quot;rawIconId&quot;:&quot;fce5fb05-37d3-4864-891e-2d98117c6765&quot;,&quot;selectedEffects&quot;:{&quot;container&quot;:&quot;&quot;,&quot;transformation&quot;:&quot;&quot;,&quot;pattern&quot;:&quot;&quot;},&quot;isDetailed&quot;:false,&quot;fillRule&quot;:&quot;nonzero&quot;,&quot;bounds&quot;:{&quot;x&quot;:203.79228833895118,&quot;y&quot;:129.2628015515505,&quot;width&quot;:142.41542332209767,&quot;height&quot;:142.41525242362385},&quot;iconStyle&quot;:&quot;standalone&quot;,&quot;suitableAsStandaloneIcon&quot;:true}"
        id="element-id-67582">
        <path
            d="M211.72658,200.47037c0,-34.94484 28.32838,-63.27322 63.27322,-63.27322c34.94484,0 63.27322,28.32838 63.27322,63.27322c0,34.94484 -28.32838,63.27322 -63.27322,63.27322c-34.94484,0 -63.27322,-28.32838 -63.27322,-63.27322zM271.74198,254.04604v-45.04863l-41.03078,-23.74184c4.74837,-14.36687 16.55842,-25.56814 31.29053,-29.46424v29.34248h9.74024v-40.54377c-3.28733,0.12175 -6.57466,0.48701 -9.74024,1.21753c-21.79379,4.62662 -38.71747,22.15905 -42.49182,44.31812l42.49182,24.47236v28.24671c-14.73212,-3.8961 -26.42041,-15.09738 -31.16878,-29.34248h-10.22726c5.23539,19.72399 21.30677,35.06488 41.39604,39.32624c3.16557,0.73052 6.45291,1.09577 9.74024,1.21753zM292.59964,157.54047v96.50557c3.48665,-1.12071 6.84878,-2.61499 9.96186,-4.2338v-86.91728c5.47903,3.86023 10.08639,8.96568 13.44853,14.81828h11.2071c-8.46759,-19.05207 -27.2706,-32.37607 -49.31124,-33.1232v9.96186c5.10546,0.12452 10.08639,1.24523 14.69376,2.98856zM346.19459,201.87364l-0.01689,0.71123l-0.0238,0.71123l-0.0307,0.71085l-0.03761,0.71047l-0.04453,0.71047l-0.05182,0.71008l-0.05834,0.7097l-0.06602,0.70893l-0.07255,0.70816l-0.07984,0.70778l-0.08713,0.70663l-0.09404,0.70586l-0.10133,0.70509l-0.10862,0.70432l-0.11553,0.70279l-0.12283,0.70164l-0.12973,0.70048l-0.13702,0.69895l-0.14432,0.6978l-0.15123,0.69626l-0.15852,0.69435l-0.16543,0.69319l-0.17272,0.69127l-0.17963,0.68935l-0.18654,0.68743l-0.19345,0.68552l-0.20074,0.68359l-0.20726,0.68129l-0.21456,0.67937l-0.22109,0.67707l-0.22799,0.67477l-0.23452,0.67208l-0.24143,0.67016l-0.24795,0.66747l-0.25447,0.66479l-0.26139,0.6621l-0.26753,0.65942l-0.27405,0.65711l-0.16121,0.37807l-0.2825,0.64944l-0.29017,0.64982l-0.2967,0.64675l-0.30322,0.64406l-0.30936,0.64137l-0.31589,0.63792l-0.32241,0.63485l-0.32856,0.63178l-0.33508,0.62832l-0.34122,0.62525l-0.34775,0.62142l-0.35389,0.61835l-0.36003,0.61451l-0.36617,0.61067l-0.37269,0.60722l-0.37884,0.60338l-0.38459,0.59954l-0.39112,0.59532l-0.39688,0.59186l-0.40302,0.58726l-0.40877,0.58342l-0.41492,0.57881l-0.42067,0.57497l-0.42643,0.57075l-0.43219,0.56614l-0.43795,0.56154l-0.44332,0.55731l-0.44908,0.55271l-0.45445,0.54811l-0.45982,0.54388l-0.4652,0.53889l-0.47058,0.53429l-0.47595,0.5293l-0.48055,0.52508l-0.48593,0.5197l-0.49091,0.51548l-0.4959,0.5101l-0.50051,0.50589l-0.29171,0.28979l-0.5055,0.49552l-0.51318,0.49322l-0.51779,0.48784l-0.52277,0.48324l-0.52738,0.47787l-0.53199,0.47288l-0.53659,0.4675l-0.54158,0.46213l-0.54618,0.45714l-0.55079,0.45138l-0.55501,0.44601l-0.55962,0.44025l-0.56423,0.4345l-0.56845,0.42912l-0.57305,0.42336l-0.57727,0.41722l-0.58111,0.41184l-0.58572,0.40571l-0.58956,0.39957l-0.59378,0.39342l-0.59762,0.38767l-0.60184,0.38152l-0.60529,0.37539l-0.60913,0.36924l-0.61297,0.3631l-0.61681,0.35657l-0.61988,0.35043l-0.62372,0.3443l-0.62679,0.33777l-0.63025,0.33124l-0.6337,0.32548l-0.63677,0.31858l-0.63984,0.31244l-0.64253,0.30591l-0.64598,0.29977l-0.64828,0.29325l-0.65136,0.28672l-0.65404,0.28058l-0.64598,0.26945l-0.65942,0.26791l-0.6621,0.26139l-0.6644,0.25486l-0.66747,0.24834l-0.66978,0.24143l-0.67208,0.2349l-0.67439,0.22838l-0.67707,0.22147l-0.67899,0.21456l-0.68129,0.20765l-0.68359,0.20074l-0.68552,0.19383l-0.68743,0.18693l-0.68897,0.18001l-0.69127,0.17272l-0.69281,0.16581l-0.69473,0.15852l-0.69588,0.15161l-0.6978,0.1447l-0.69895,0.13741l-0.70048,0.13012l-0.70164,0.12283l-0.70279,0.11592l-0.70432,0.109l-0.70471,0.10133l-0.70625,0.09442l-0.70663,0.08751l-0.70778,0.08022l-0.70816,0.07292l-0.70931,0.06602l-0.70931,0.05911l-0.71008,0.05182l-0.71047,0.04491l-0.71085,0.038l-0.71085,0.0307l-0.71123,0.02418l-0.71161,0.01689l-0.71123,0.01036l-0.71123,0.00345l-0.7001,-0.00307l-0.71123,-0.00998l-0.71123,-0.01689l-0.71123,-0.0238l-0.71085,-0.0307l-0.71085,-0.03761l-0.71008,-0.04453l-0.71008,-0.05182l-0.70954,-0.05834l-0.70897,-0.06602l-0.70832,-0.07255l-0.70763,-0.07984l-0.70686,-0.08713l-0.70597,-0.09404l-0.70501,-0.10133l-0.70402,-0.10862l-0.70291,-0.11553l-0.70172,-0.12283l-0.70045,-0.12973l-0.69914,-0.13702l-0.69764,-0.14432l-0.69618,-0.15123l-0.69461,-0.15852l-0.69296,-0.16543l-0.69116,-0.17272l-0.68943,-0.17963l-0.68751,-0.18654l-0.68559,-0.19345l-0.68352,-0.20074l-0.68141,-0.20726l-0.67926,-0.21456l-0.67699,-0.22109l-0.67473,-0.22799l-0.67235,-0.23452l-0.66989,-0.24143l-0.6674,-0.24795l-0.66487,-0.25447l-0.66225,-0.26139l-0.65957,-0.26753l-0.65684,-0.27405l-0.37842,-0.16121l-0.64929,-0.2825l-0.64978,-0.29017l-0.64694,-0.2967l-0.64406,-0.30322l-0.6411,-0.30936l-0.63804,-0.31589l-0.63497,-0.32241l-0.6317,-0.32856l-0.62844,-0.33508l-0.62506,-0.34122l-0.62169,-0.34737l-0.61812,-0.35389l-0.61451,-0.36041l-0.6109,-0.36617l-0.60714,-0.37269l-0.60334,-0.37884l-0.59946,-0.38459l-0.59551,-0.39112l-0.59152,-0.39688l-0.58745,-0.40302l-0.58329,-0.40877l-0.5791,-0.41492l-0.57485,-0.42067l-0.57052,-0.42643l-0.56618,-0.43219l-0.56172,-0.43795l-0.5573,-0.44332l-0.55275,-0.44908l-0.54819,-0.45445l-0.54359,-0.45982l-0.53896,-0.4652l-0.53425,-0.47058l-0.52955,-0.47595l-0.52482,-0.48055l-0.52001,-0.48593l-0.51517,-0.49091l-0.51037,-0.4959l-0.50554,-0.50051l-0.28987,-0.29132l-0.49548,-0.50589l-0.49303,-0.5128l-0.48807,-0.51779l-0.48309,-0.52277l-0.47798,-0.52738l-0.4728,-0.53199l-0.46758,-0.53698l-0.46228,-0.5412l-0.45687,-0.54618l-0.45146,-0.55079l-0.44593,-0.55501l-0.44036,-0.55962l-0.43472,-0.56423l-0.42904,-0.56845l-0.42324,-0.57305l-0.41745,-0.57727l-0.41158,-0.58111l-0.40563,-0.58572l-0.39972,-0.58956l-0.39365,-0.59378l-0.38759,-0.59762l-0.38152,-0.60184l-0.37534,-0.60529l-0.36916,-0.60913l-0.36299,-0.61297l-0.35669,-0.61642l-0.35047,-0.62026l-0.34414,-0.62372l-0.33784,-0.62679l-0.33147,-0.63025l-0.32518,-0.6337l-0.31877,-0.63677l-0.3124,-0.63984l-0.30602,-0.64253l-0.29961,-0.64598l-0.29325,-0.64828l-0.28683,-0.65136l-0.28047,-0.65404l-0.26979,-0.64637l-0.26772,-0.65942l-0.26135,-0.66172l-0.25482,-0.66479l-0.24822,-0.66747l-0.24162,-0.66978l-0.2349,-0.67208l-0.22819,-0.67439l-0.22143,-0.67707l-0.2146,-0.67899l-0.20769,-0.68129l-0.20082,-0.68359l-0.19387,-0.68552l-0.18688,-0.68743l-0.17986,-0.68897l-0.17288,-0.69127l-0.16578,-0.69281l-0.15867,-0.69473l-0.15161,-0.69588l-0.14444,-0.6978l-0.13733,-0.69895l-0.1302,-0.70048l-0.12305,-0.70164l-0.11588,-0.70279l-0.10874,-0.70432l-0.1016,-0.70471l-0.09446,-0.70625l-0.08728,-0.70663l-0.08022,-0.70778l-0.07308,-0.70855l-0.06598,-0.70893l-0.05892,-0.70931l-0.0519,-0.71008l-0.04483,-0.71047l-0.03788,-0.71085l-0.03094,-0.71085l-0.02399,-0.71123l-0.01712,-0.71161l-0.01025,-0.71123l-0.00345,-0.71123l0.00318,-0.7001l0.01002,-0.71085l0.01685,-0.71123l0.02372,-0.71123l0.03063,-0.71085l0.03758,-0.71085l0.0446,-0.71047l0.05158,-0.71008l0.05865,-0.70931l0.06571,-0.70901l0.07277,-0.70835l0.07992,-0.70763l0.08702,-0.70682l0.09415,-0.70597l0.10129,-0.70501l0.10847,-0.70402l0.11561,-0.70291l0.12275,-0.70172l0.12989,-0.70045l0.13707,-0.6991l0.14417,-0.69769l0.1513,-0.69618l0.15841,-0.69461l0.16551,-0.69296l0.17257,-0.6912l0.17959,-0.68943l0.18661,-0.68751l0.1936,-0.68555l0.20055,-0.68352l0.20746,-0.68145l0.21429,-0.67922l0.22116,-0.67704l0.22796,-0.67473l0.23467,-0.67231l0.24135,-0.66993l0.24803,-0.6674l0.25455,-0.66487l0.26112,-0.66222l0.26756,-0.6596l0.27398,-0.65684l0.16124,-0.37842l0.28261,-0.64932l0.29033,-0.64978l0.29674,-0.64694l0.30311,-0.64406l0.30948,-0.6411l0.31589,-0.63804l0.32226,-0.63493l0.3286,-0.6317l0.33497,-0.62844l0.3413,-0.62506l0.34759,-0.62165l0.35389,-0.61812l0.36015,-0.61454l0.36636,-0.6109l0.37254,-0.60714l0.37873,-0.6033l0.38486,-0.59946l0.39093,-0.59555l0.39699,-0.59148l0.40298,-0.58745l0.40893,-0.5833l0.4148,-0.57909l0.42067,-0.57485l0.42643,-0.57053l0.43219,-0.56616l0.43783,-0.56175l0.44347,-0.55728l0.449,-0.55276l0.45445,-0.5482l0.4599,-0.54359l0.46524,-0.53895l0.4705,-0.53427l0.47572,-0.52955l0.48086,-0.5248l0.48589,-0.52002l0.49084,-0.51522l0.49579,-0.51037l0.50059,-0.5055l0.29144,-0.28994l0.50573,-0.49548l0.51299,-0.49303l0.51779,-0.48807l0.52261,-0.48309l0.52736,-0.47794l0.5321,-0.47284l0.5368,-0.46758l0.54146,-0.46224l0.54609,-0.45691l0.55067,-0.45146l0.55521,-0.44593l0.55971,-0.44033l0.56415,-0.43472l0.56855,-0.42904l0.57289,-0.42324l0.57717,-0.41745l0.5814,-0.41158l0.58556,-0.40563l0.58967,-0.39968l0.5937,-0.39369l0.5977,-0.38759l0.60161,-0.38149l0.60545,-0.37539l0.60921,-0.36916l0.61293,-0.36295l0.61654,-0.35673l0.62008,-0.35043l0.62357,-0.34414l0.62698,-0.33784l0.63028,-0.33151l0.63355,-0.32514l0.63673,-0.31877l0.63977,-0.3124l0.6428,-0.30602l0.64575,-0.29961l0.64855,-0.29325l0.65136,-0.28683l0.65404,-0.28047l0.64629,-0.26979l0.65926,-0.26776l0.66206,-0.26135l0.66467,-0.25478l0.66729,-0.24826l0.66974,-0.24158l0.6722,-0.23494l0.67454,-0.22819l0.67692,-0.22143l0.67911,-0.21456l0.68129,-0.20773l0.68344,-0.20082l0.68544,-0.19387l0.68743,-0.18688l0.68932,-0.17986l0.69112,-0.17284l0.69284,-0.16578l0.69454,-0.15871l0.69615,-0.15157l0.69761,-0.14447l0.69907,-0.13733l0.70045,-0.1302l0.70167,-0.12305l0.70291,-0.11588l0.70398,-0.10874l0.70501,-0.1016l0.70601,-0.09446l0.70682,-0.08728l0.70766,-0.08018l0.70835,-0.07308l0.70901,-0.06602l0.70943,-0.05892l0.71008,-0.05185l0.71047,-0.04487l0.71085,-0.03788l0.71085,-0.03094l0.71123,-0.02399l0.71161,-0.01712l0.71123,-0.01025l0.71123,-0.00345l0.69972,0.00318l0.71123,0.01002l0.71123,0.01681l0.71085,0.02372l0.71123,0.03067l0.71047,0.03758l0.71047,0.0446l0.71008,0.05158l0.70931,0.05865l0.70931,0.06571l0.70816,0.07277l0.70778,0.07992l0.70663,0.08702l0.70586,0.09415l0.70509,0.10129l0.70394,0.10847l0.70317,0.11557l0.70164,0.12278l0.70048,0.12989l0.69895,0.13707l0.6978,0.14417l0.69626,0.1513l0.69435,0.15841l0.69319,0.16551l0.69127,0.17257l0.68935,0.17959l0.68743,0.18661l0.68552,0.1936l0.68359,0.20055l0.68129,0.20746l0.67937,0.21433l0.67707,0.22116l0.67477,0.22796l0.67208,0.23467l0.67016,0.24135l0.66747,0.24803l0.66479,0.25455l0.6621,0.26112l0.65942,0.26756l0.65711,0.27398l0.37845,0.16132l0.64944,0.28257l0.64982,0.29033l0.64675,0.29674l0.64406,0.30311l0.64099,0.30952l0.63831,0.31585l0.63485,0.32226l0.63178,0.32863l0.62832,0.33497l0.62525,0.34126l0.62142,0.34759l0.61835,0.35389l0.61451,0.36015l0.61067,0.36636l0.60722,0.37254l0.60338,0.37873l0.59954,0.38486l0.59532,0.39093l0.59148,0.39699l0.58764,0.40294l0.58342,0.40893l0.57881,0.4148l0.57497,0.42067l0.57037,0.42643l0.56614,0.43219l0.56192,0.43783l0.55731,0.44347l0.55271,0.449l0.54811,0.45445l0.54388,0.4599l0.53889,0.46524l0.53429,0.4705l0.5293,0.47567l0.52508,0.48086l0.5197,0.48589l0.51548,0.49084l0.5101,0.49579l0.5055,0.50055l0.29017,0.29152l0.49552,0.50573l0.49284,0.51299l0.48823,0.51779l0.48285,0.52261l0.47825,0.52737l0.47288,0.53209l0.4675,0.5368l0.46213,0.54146l0.45675,0.54608l0.45176,0.55068l0.44562,0.55521l0.44063,0.55972l0.4345,0.56414l0.42912,0.56853l0.42336,0.57291l0.41722,0.57717l0.41184,0.5814l0.40532,0.58557l0.39995,0.58964l0.39342,0.59374l0.38767,0.5977l0.38152,0.60161l0.37539,0.60545l0.36924,0.60921l0.3631,0.6129l0.35657,0.61658l0.35043,0.62003l0.3443,0.6236l0.33777,0.62694l0.33124,0.63032l0.3251,0.63351l0.31896,0.63673l0.31244,0.63977l0.30591,0.6428l0.29977,0.64575l0.29325,0.64855l0.28672,0.65136l0.28058,0.65401l0.26983,0.64617l0.26753,0.6593l0.26139,0.66206l0.25486,0.66467l0.24834,0.66724l0.24143,0.66974l0.2349,0.6722l0.22838,0.67454l0.22147,0.67692l0.21456,0.67914l0.20765,0.68126l0.20074,0.68344l0.19383,0.68544l0.18693,0.6874l0.18001,0.68932l0.17272,0.69116l0.16581,0.69284l0.15891,0.69454l0.15161,0.69615l0.14432,0.69764l0.13741,0.69902l0.13012,0.70045l0.12321,0.70167l0.11553,0.70286l0.109,0.70402l0.10133,0.70506l0.09481,0.70594l0.08713,0.70686l0.08022,0.70766l0.07292,0.7084l0.06602,0.70909l0.05911,0.70931l0.05182,0.71008l0.04491,0.71047l0.038,0.71085l0.0307,0.71085l0.02418,0.71123l0.01689,0.71161l0.01036,0.71123l0.00345,0.71123v0.01574l-0.00307,0.68436zM342.86373,199.79905l-0.0096,-0.67937l-0.01612,-0.67899l-0.02303,-0.67861l-0.02917,-0.67861l-0.03608,-0.67784l-0.0426,-0.67746l-0.04913,-0.67707l-0.05604,-0.67669l-0.06295,-0.67565l-0.06947,-0.67503l-0.076,-0.67423l-0.08329,-0.67343l-0.08981,-0.67254l-0.09634,-0.6715l-0.10364,-0.67047l-0.11016,-0.66932l-0.11707,-0.66821l-0.1236,-0.66694l-0.1305,-0.66564l-0.13741,-0.66425l-0.14432,-0.66275l-0.15085,-0.66133l-0.15775,-0.65973l-0.16428,-0.65811l-0.17119,-0.65639l-0.17771,-0.65466l-0.18462,-0.65285l-0.19114,-0.65093l-0.19767,-0.64905l-0.2042,-0.64701l-0.21072,-0.64499l-0.21763,-0.64291l-0.22377,-0.64072l-0.22992,-0.6385l-0.23682,-0.63631l-0.24258,-0.63393l-0.24911,-0.63163l-0.25563,-0.62928l-0.25717,-0.6165l-0.26753,-0.62422l-0.27367,-0.62149l-0.27943,-0.61873l-0.28556,-0.61589l-0.29171,-0.61297l-0.29746,-0.60998l-0.30399,-0.60695l-0.30975,-0.60388l-0.31551,-0.60065l-0.32165,-0.59743l-0.32779,-0.59409l-0.33393,-0.59079l-0.3393,-0.58729l-0.34583,-0.58384l-0.3512,-0.58027l-0.35734,-0.57663l-0.3631,-0.57298l-0.36924,-0.56929l-0.37462,-0.56545l-0.38037,-0.56166l-0.38613,-0.55774l-0.39188,-0.55382l-0.39765,-0.54979l-0.40264,-0.54576l-0.40877,-0.54173l-0.41415,-0.53757l-0.41914,-0.5334l-0.4249,-0.5292l-0.43027,-0.52494l-0.43526,-0.52067l-0.44063,-0.51635l-0.44601,-0.512l-0.45062,-0.50763l-0.45599,-0.50321l-0.46059,-0.49878l-0.46597,-0.49433l-0.47058,-0.48984l-0.47787,-0.48776l-0.27213,-0.27368l-0.48247,-0.47808l-0.48707,-0.47335l-0.49168,-0.46855l-0.4959,-0.46374l-0.50051,-0.45875l-0.50512,-0.45384l-0.50934,-0.44873l-0.51356,-0.44367l-0.51816,-0.43848l-0.52239,-0.43326l-0.52661,-0.42797l-0.53083,-0.42263l-0.53505,-0.41726l-0.53889,-0.41181l-0.5435,-0.40632l-0.54734,-0.40076l-0.55156,-0.39519l-0.5554,-0.38955l-0.55924,-0.3839l-0.56307,-0.37815l-0.56691,-0.37243l-0.57075,-0.36663l-0.57459,-0.3608l-0.57804,-0.35496l-0.58188,-0.34909l-0.58533,-0.34318l-0.58879,-0.33723l-0.59186,-0.33128l-0.5957,-0.32533l-0.59877,-0.31935l-0.60184,-0.31332l-0.60529,-0.30733l-0.60837,-0.3013l-0.61105,-0.29528l-0.61412,-0.28925l-0.61719,-0.28319l-0.61988,-0.27716l-0.62602,-0.27252l-0.35504,-0.15138l-0.62641,-0.26154l-0.62909,-0.2554l-0.63178,-0.24914l-0.6337,-0.24289l-0.63638,-0.23655l-0.63831,-0.23022l-0.64061,-0.22381l-0.64291,-0.21733l-0.64483,-0.21084l-0.64714,-0.20435l-0.64867,-0.19775l-0.65097,-0.19114l-0.65289,-0.18451l-0.65481,-0.17786l-0.65634,-0.17119l-0.65788,-0.16447l-0.6598,-0.15772l-0.66133,-0.151l-0.66287,-0.1442l-0.66402,-0.13745l-0.66556,-0.13065l-0.6671,-0.12386l-0.66824,-0.11707l-0.6694,-0.11027l-0.67055,-0.10344l-0.67132,-0.09665l-0.67246,-0.08989l-0.67362,-0.08306l-0.67439,-0.07631l-0.67516,-0.06955l-0.67553,-0.06279l-0.67669,-0.05608l-0.67707,-0.04936l-0.67746,-0.04268l-0.67822,-0.03604l-0.67861,-0.0294l-0.67861,-0.0228l-0.67937,-0.0162l-0.67937,-0.00971l-0.66786,-0.00323l-0.67937,0.00318l-0.67937,0.00963l-0.67899,0.0162l-0.67861,0.02272l-0.67861,0.02937l-0.67784,0.03597l-0.67746,0.04265l-0.67707,0.04928l-0.67657,0.056l-0.67577,0.06276l-0.67503,0.06947l-0.67427,0.07623l-0.67343,0.08302l-0.67251,0.08981l-0.6715,0.09657l-0.67047,0.1034l-0.66936,0.11019l-0.66817,0.11699l-0.66694,0.12379l-0.66564,0.13058l-0.66425,0.13741l-0.66279,0.14412l-0.6613,0.15096l-0.65973,0.15768l-0.65811,0.16439l-0.65642,0.17111l-0.65466,0.17779l-0.65281,0.18447l-0.65097,0.19111l-0.64905,0.19771l-0.64701,0.20427l-0.64499,0.2108l-0.64291,0.21733l-0.64072,0.22373l-0.63853,0.23018l-0.63627,0.23655l-0.63393,0.24285l-0.63163,0.24914l-0.62928,0.2554l-0.61666,0.25724l-0.62418,0.26753l-0.62153,0.27352l-0.61869,0.27958l-0.61589,0.28561l-0.61297,0.29163l-0.61001,0.29766l-0.60695,0.30372l-0.60383,0.30971l-0.60065,0.31573l-0.59743,0.32172l-0.59413,0.32771l-0.59075,0.33366l-0.58734,0.33961l-0.5838,0.34552l-0.58027,0.35147l-0.57666,0.35731l-0.57298,0.36314l-0.56926,0.36893l-0.5655,0.37477l-0.56162,0.38045l-0.55774,0.38617l-0.55382,0.39185l-0.54979,0.39745l-0.5458,0.40302l-0.54169,0.40855l-0.53757,0.41404l-0.5334,0.41945l-0.52919,0.42482l-0.52494,0.43016l-0.52066,0.43541l-0.51635,0.4406l-0.512,0.44577l-0.50762,0.45084l-0.50321,0.45587l-0.49878,0.46086l-0.49432,0.46573l-0.48984,0.47056l-0.48776,0.47775l-0.27369,0.27213l-0.47807,0.48258l-0.47337,0.4871l-0.46858,0.49159l-0.4637,0.49606l-0.45879,0.50051l-0.45384,0.50493l-0.44873,0.50933l-0.44367,0.51371l-0.43848,0.51804l-0.43326,0.52235l-0.42797,0.52662l-0.42267,0.53085l-0.41722,0.53505l-0.41181,0.53919l-0.40632,0.54334l-0.40079,0.54737l-0.39519,0.5514l-0.38955,0.5554l-0.3839,0.55927l-0.37815,0.56319l-0.37243,0.56699l-0.36663,0.57079l-0.3608,0.57448l-0.35496,0.57812l-0.34909,0.58173l-0.34318,0.58526l-0.33723,0.58872l-0.33132,0.59217l-0.32533,0.59547l-0.31931,0.59877l-0.31336,0.60203l-0.30733,0.60514l-0.3013,0.60821l-0.29528,0.61128l-0.28922,0.6142l-0.28323,0.61711l-0.27716,0.61992l-0.27248,0.62587l-0.15134,0.35488l-0.26154,0.62663l-0.25536,0.62909l-0.24918,0.63151l-0.24289,0.63389l-0.23655,0.63616l-0.23022,0.63846l-0.22377,0.64065l-0.21736,0.64283l-0.21084,0.64491l-0.20431,0.64698l-0.19775,0.64897l-0.19114,0.65093l-0.18451,0.65278l-0.17786,0.65462l-0.17119,0.65639l-0.16447,0.65807l-0.15772,0.65968l-0.151,0.6613l-0.1442,0.66279l-0.13745,0.66425l-0.13065,0.66564l-0.12386,0.66694l-0.11707,0.66817l-0.11027,0.6694l-0.10344,0.67047l-0.09665,0.67158l-0.08986,0.67254l-0.0831,0.67343l-0.07631,0.67434l-0.06955,0.67508l-0.06279,0.67592l-0.05608,0.6763l-0.04936,0.67707l-0.04268,0.67784l-0.036,0.67784l-0.0294,0.67861l-0.0228,0.67899l-0.01624,0.67899l-0.00971,0.67937l-0.00323,0.66824l0.00318,0.67937l0.00963,0.67937l0.0162,0.67899l0.02272,0.67861l0.02937,0.67861l0.03597,0.67784l0.04265,0.67746l0.04928,0.67707l0.056,0.67669l0.06276,0.67553l0.06947,0.67516l0.07623,0.67439l0.08302,0.67323l0.08978,0.67246l0.09661,0.6717l0.1034,0.67055l0.11016,0.6694l0.11703,0.66786l0.12379,0.6671l0.13058,0.66556l0.13737,0.6644l0.14417,0.66287l0.15092,0.66095l0.15768,0.6598l0.16443,0.65827l0.17111,0.65634l0.17779,0.65481l0.18447,0.6525l0.19111,0.65097l0.19771,0.64905l0.20427,0.64714l0.2108,0.64521l0.21728,0.64253l0.22377,0.64099l0.23018,0.63831l0.23652,0.63638l0.24289,0.63408l0.24911,0.6314l0.25544,0.62948l0.2572,0.61642l0.26753,0.62448l0.27352,0.62142l0.27958,0.61873l0.28561,0.61566l0.29163,0.61297l0.2977,0.61029l0.30369,0.60683l0.30971,0.60376l0.31573,0.60069l0.32172,0.59762l0.32771,0.59378l0.33366,0.59071l0.33961,0.58764l0.34556,0.5838l0.35143,0.57997l0.35731,0.5769l0.36314,0.57305l0.36898,0.56921l0.37473,0.56537l0.38049,0.56154l0.38617,0.5577l0.39185,0.55386l0.39745,0.55002l0.40302,0.5458l0.40855,0.54158l0.41404,0.53736l0.41945,0.53352l0.42482,0.5293l0.43016,0.52508l0.43541,0.52047l0.44063,0.51625l0.44574,0.51203l0.45088,0.5078l0.45587,0.5032l0.46082,0.49859l0.46573,0.49437l0.47061,0.48977l0.47775,0.48784l0.27208,0.27367l0.48257,0.47825l0.48708,0.47326l0.49159,0.46865l0.49606,0.46366l0.5005,0.45868l0.50493,0.45369l0.50933,0.44908l0.51369,0.4437l0.51803,0.43833l0.52235,0.43334l0.52662,0.42797l0.53082,0.4226l0.53507,0.41722l0.53918,0.41184l0.54331,0.40609l0.54742,0.4011l0.5514,0.39496l0.55536,0.38958l0.55927,0.38383l0.56323,0.37845l0.56699,0.37231l0.57075,0.36656l0.57448,0.3608l0.57816,0.35504l0.58169,0.3489l0.58526,0.34314l0.58875,0.33738l0.59213,0.33124l0.59551,0.32548l0.59877,0.31935l0.602,0.3132l0.60514,0.30745l0.60825,0.3013l0.61125,0.29516l0.61424,0.28941l0.61711,0.28288l0.61992,0.27713l0.62587,0.27252l0.35488,0.15161l0.62663,0.26139l0.62909,0.25524l0.63151,0.24949l0.63386,0.24258l0.63623,0.23682l0.63842,0.22992l0.64068,0.22415l0.64276,0.21725l0.64499,0.21072l0.64694,0.2042l0.64897,0.19806l0.65093,0.19114l0.65278,0.18424l0.65462,0.1781l0.65634,0.17119l0.65811,0.16428l0.65968,0.15775l0.6613,0.15123l0.66275,0.14393l0.66429,0.13741l0.66559,0.13089l0.66694,0.12398l0.66821,0.11707l0.6694,0.11016l0.67047,0.10325l0.67155,0.09672l0.67254,0.08981l0.67346,0.08329l0.67431,0.07638l0.67508,0.06947l0.67588,0.06256l0.67654,0.05604l0.67707,0.04951l0.67746,0.0426l0.67822,0.03608l0.67861,0.02955l0.67861,0.02264l0.67899,0.01612l0.67976,0.00998l0.66824,0.00307l0.67937,-0.00307l0.67937,-0.0096l0.67899,-0.01612l0.67861,-0.02303l0.67861,-0.02917l0.67784,-0.03608l0.67746,-0.0426l0.67707,-0.04913l0.67669,-0.05604l0.67553,-0.06295l0.67516,-0.06947l0.67439,-0.076l0.67323,-0.08329l0.67246,-0.08981l0.6717,-0.09634l0.67055,-0.10364l0.66901,-0.11016l0.66824,-0.11707l0.6671,-0.1236l0.66556,-0.13089l0.6644,-0.13702l0.66249,-0.14432l0.66133,-0.15085l0.6598,-0.15775l0.65827,-0.16428l0.65634,-0.17119l0.65443,-0.1781l0.65289,-0.18424l0.65097,-0.19114l0.64905,-0.19767l0.64714,-0.2042l0.64483,-0.2111l0.64291,-0.21725l0.64099,-0.22377l0.63831,-0.22992l0.63638,-0.23682l0.63408,-0.24258l0.6314,-0.24949l0.62948,-0.25524l0.61605,-0.25717l0.62411,-0.26753l0.6218,-0.27367l0.61873,-0.27943l0.61566,-0.28556l0.61297,-0.29171l0.61029,-0.29746l0.60683,-0.30399l0.60376,-0.30975l0.60069,-0.31551l0.59723,-0.32165l0.59416,-0.32779l0.59071,-0.33354l0.58764,-0.33969l0.5838,-0.34583l0.57997,-0.3512l0.5769,-0.35734l0.57305,-0.3631l0.56921,-0.36886l0.56537,-0.375l0.56154,-0.38037l0.5577,-0.38613l0.55386,-0.39188l0.55002,-0.39726l0.5458,-0.40302l0.54158,-0.40877l0.53774,-0.41377l0.53314,-0.41952l0.5293,-0.4249l0.52508,-0.43027l0.52047,-0.43526l0.51663,-0.44063l0.51203,-0.44562l0.50742,-0.45099l0.5032,-0.45599l0.49897,-0.46059l0.49437,-0.46597l0.48977,-0.47058l0.48784,-0.47748l0.27367,-0.27252l0.47825,-0.48247l0.47326,-0.48707l0.46865,-0.49168l0.46366,-0.4959l0.45868,-0.50051l0.45369,-0.50512l0.44908,-0.50896l0.44332,-0.51394l0.43872,-0.51816l0.43334,-0.522l0.42797,-0.52661l0.4226,-0.53122l0.41722,-0.53505l0.41184,-0.53889l0.40609,-0.5435l0.40071,-0.54734l0.39535,-0.55156l0.38958,-0.5554l0.38383,-0.55924l0.37807,-0.56307l0.37269,-0.56691l0.36656,-0.57075l0.3608,-0.57459l0.35504,-0.57804l0.3489,-0.58188l0.34314,-0.58533l0.33738,-0.58841l0.33124,-0.59225l0.32548,-0.5957l0.31935,-0.59877l0.3132,-0.60184l0.30745,-0.60529l0.3013,-0.60799l0.29516,-0.61144l0.28941,-0.61412l0.28288,-0.61719l0.27751,-0.61988l0.27252,-0.62602l0.15123,-0.35466l0.26139,-0.62641l0.25524,-0.62948l0.24949,-0.6314l0.24258,-0.6337l0.23682,-0.63638l0.22992,-0.63831l0.22415,-0.64061l0.21725,-0.64291l0.21072,-0.64483l0.2042,-0.64714l0.19806,-0.64867l0.19114,-0.65097l0.18424,-0.65289l0.1781,-0.65481l0.17119,-0.65634l0.16428,-0.65788l0.15775,-0.6598l0.15123,-0.66133l0.14393,-0.66287l0.13741,-0.66402l0.13089,-0.66556l0.12398,-0.6671l0.11707,-0.66824l0.11016,-0.6694l0.10325,-0.67055l0.09672,-0.67132l0.08981,-0.67246l0.08329,-0.67362l0.07638,-0.67439l0.06947,-0.67516l0.06256,-0.67553l0.05604,-0.67669l0.04951,-0.67707l0.0426,-0.67746l0.03608,-0.67822l0.02955,-0.67861l0.02264,-0.67861l0.01612,-0.67937l0.00998,-0.67937l0.00307,-0.66824v-0.01574z"
            data-paper-data="{&quot;isPathIcon&quot;:true}" id="element-id-20407"></path>
    </g>
</svg>