<svg
    xmlns="http://www.w3.org/2000/svg"
    viewBox="60 295 430 50">
    <g fill="white" stroke="none" stroke-width="1" stroke-linecap="butt"
        stroke-linejoin="miter" stroke-miterlimit="10" stroke-dasharray="" stroke-dashoffset="0"
        font-family="none" font-weight="none" font-size="none" text-anchor="none"
        style="mix-blend-mode: normal">

        <g data-paper-data="{&quot;isPrimaryText&quot;:true}" id="element-id-80193">
            <path
                d="M86.52146,316.80437c-2.41137,-0.96455 -11.27314,-2.2908 -11.27314,-5.96814c0,-2.71279 3.31563,-3.49648 5.30501,-3.49648c1.80853,0 3.97876,0.54256 5.12416,1.62767c0.72341,0.72341 1.02483,1.20568 1.26597,1.80853c0.30142,0.78369 0.48227,1.62767 1.62767,1.62767h5.90785c1.38654,0 1.74824,-0.24114 1.74824,-1.68796c0,-7.95751 -8.3795,-11.454 -16.0356,-11.454c-7.53552,0.30142 -14.64906,4.15961 -14.64906,11.99656c0,7.65609 5.60643,10.06746 11.69513,11.99656c5.12416,1.62767 10.48945,1.68796 10.48945,5.06387c0,3.37592 -2.6525,4.09933 -5.90785,4.09933c-2.23052,0 -4.70217,-0.54256 -5.90785,-1.98938c-0.78369,-0.90426 -1.08512,-1.68796 -1.1454,-2.47165c-0.12057,-1.5071 -0.78369,-1.68796 -2.17023,-1.68796h-5.84757c-1.38654,0 -1.74824,0.30142 -1.74824,1.68796c0,8.43979 8.68092,12.78025 16.21645,12.78025c9.28377,0 16.0356,-4.09933 16.0356,-12.65968c0,-8.19865 -6.39012,-9.94689 -10.73059,-11.27314z"
                data-paper-data="{&quot;glyphName&quot;:&quot;S&quot;,&quot;glyphIndex&quot;:0,&quot;firstGlyphOfWord&quot;:true,&quot;word&quot;:1}"
                id="element-id-46897"></path>
            <path
                d="M139.87297,300.10565h-5.78728c-1.98938,0 -2.2908,1.32625 -2.71279,2.04966l-8.31922,14.82991l-8.25893,-14.82991c-0.48227,-0.72341 -0.72341,-2.04966 -2.77307,-2.04966h-5.96814c-1.38654,0 -1.74824,0.66313 -1.74824,1.74824v36.2308c0,1.38654 0.66313,1.74824 1.74824,1.74824h5.96814c1.08512,0 1.74824,-0.36171 1.74824,-1.74824v-20.43634l6.0887,10.54973c0.30142,0.48227 0.78369,1.26597 1.68796,1.26597h3.01421c0.90426,0 1.44682,-0.78369 1.74824,-1.26597l6.02842,-10.54973v20.43634c0,1.38654 0.66313,1.74824 1.74824,1.74824h5.78728c1.08512,0 1.74824,-0.36171 1.74824,-1.74824v-36.2308c0,-1.08512 -0.36171,-1.74824 -1.74824,-1.74824z"
                data-paper-data="{&quot;glyphName&quot;:&quot;M&quot;,&quot;glyphIndex&quot;:1,&quot;word&quot;:1}"
                id="element-id-889"></path>
            <path
                d="M165.67461,312.34334l8.80149,25.68107c0.48227,1.44682 0.96455,1.80853 2.2908,1.80853h6.8724c1.32625,0 1.32625,-0.96455 1.02483,-1.68796l-13.32281,-36.11023c-0.54256,-1.26597 -1.1454,-1.86881 -2.47165,-1.86881h-5.78728c-1.32625,0 -1.98938,0.60284 -2.47165,1.86881l-13.38309,36.11023c-0.30142,0.72341 -0.30142,1.68796 1.02483,1.68796h6.57098c1.32625,0 1.80853,-0.36171 2.2908,-1.80853z"
                data-paper-data="{&quot;glyphName&quot;:&quot;Λ&quot;,&quot;glyphIndex&quot;:2,&quot;word&quot;:1}"
                id="element-id-81681"></path>
            <path
                d="M222.52261,337.90384l-8.50007,-12.35826c3.73762,-1.26597 8.3795,-5.66671 8.3795,-11.99656c0,-3.85819 -1.26597,-7.29439 -3.49648,-9.46462c-2.53194,-2.53194 -5.42558,-3.85819 -11.99656,-3.85819h-15.19162c-1.38654,0 -1.68796,0.66313 -1.68796,1.74824v36.11023c0,1.38654 0.60284,1.74824 1.68796,1.74824h5.96814c1.08512,0 1.74824,-0.36171 1.74824,-1.74824v-29.41869h8.0178c3.13478,0 5.54615,1.98938 5.54615,5.12416c0,2.83336 -2.77307,4.88302 -5.727,4.88302h-1.20568c-1.38654,0 -1.74824,0.66313 -1.74824,1.74824v4.82274c0,1.68796 0.12057,2.35108 0.66313,3.07449l6.51069,9.70576c0.84398,1.26597 1.56739,1.80853 3.01421,1.80853h7.11354c1.1454,0 1.44682,-1.08512 0.90426,-1.92909z"
                data-paper-data="{&quot;glyphName&quot;:&quot;R&quot;,&quot;glyphIndex&quot;:3,&quot;word&quot;:1}"
                id="element-id-9764"></path>
            <path
                d="M257.00517,300.16593h-27.97187c-1.38654,0 -1.74824,0.66313 -1.74824,1.74824v5.00359c0,1.08512 0.36171,1.74824 1.74824,1.74824h9.28377v29.41869c0,1.38654 0.66313,1.74824 1.74824,1.74824h5.96814c1.08512,0 1.74824,-0.36171 1.74824,-1.74824v-29.41869h9.22348c1.38654,0 1.74824,-0.66313 1.74824,-1.74824v-5.00359c0,-1.08512 -0.36171,-1.74824 -1.74824,-1.74824z"
                data-paper-data="{&quot;glyphName&quot;:&quot;T&quot;,&quot;glyphIndex&quot;:4,&quot;lastGlyphOfWord&quot;:true,&quot;word&quot;:1}"
                id="element-id-13657"></path>
            <path
                d="M307.94531,300.16593h-27.97187c-1.38654,0 -1.74824,0.66313 -1.74824,1.74824v5.00359c0,1.08512 0.36171,1.74824 1.74824,1.74824h9.28377v29.41869c0,1.38654 0.66313,1.74824 1.74824,1.74824h5.96814c1.08512,0 1.74824,-0.36171 1.74824,-1.74824v-29.41869h9.22348c1.38654,0 1.74824,-0.66313 1.74824,-1.74824v-5.00359c0,-1.08512 -0.36171,-1.74824 -1.74824,-1.74824z"
                data-paper-data="{&quot;glyphName&quot;:&quot;T&quot;,&quot;glyphIndex&quot;:5,&quot;firstGlyphOfWord&quot;:true,&quot;word&quot;:2}"
                id="element-id-41218"></path>
            <path
                d="M332.96326,331.574h-3.7979v-23.02856h3.61705c1.38654,0 1.74824,-0.66313 1.74824,-1.74824v-4.88302c0,-1.08512 -0.36171,-1.74824 -1.74824,-1.74824h-16.75901c-1.38654,0 -1.74824,0.66313 -1.74824,1.74824v4.88302c0,1.08512 0.36171,1.74824 1.74824,1.74824h3.67734v23.02856h-3.7979c-1.38654,0 -1.74824,0.66313 -1.74824,1.74824v4.76245c0,1.08512 0.36171,1.74824 1.74824,1.74824h17.06043c1.38654,0 1.74824,-0.66313 1.74824,-1.74824v-4.76245c0,-1.08512 -0.36171,-1.74824 -1.74824,-1.74824z"
                data-paper-data="{&quot;glyphName&quot;:&quot;I&quot;,&quot;glyphIndex&quot;:6,&quot;word&quot;:2}"
                id="element-id-48269"></path>
            <path
                d="M373.05225,328.07752c0,-1.44682 -0.48227,-2.04966 -1.80853,-2.04966h-5.90785c-1.32625,0 -1.44682,0.96455 -1.62767,2.17023c-0.48227,2.89364 -3.07449,4.09933 -6.32984,4.09933c-3.97876,0 -6.69155,-2.17023 -6.69155,-6.02842v-12.53911c0,-3.7979 2.71279,-6.02842 6.69155,-6.02842c3.25535,0 4.9433,0.90426 6.20927,2.89364c0.48227,0.72341 0.54256,1.86881 1.80853,1.86881h5.78728c1.38654,0 1.86881,-0.30142 1.86881,-1.74824c-0.78369,-7.65609 -8.19865,-11.454 -15.67389,-11.454c-7.17382,0 -16.15616,4.15961 -16.15616,13.62423v14.22707c0,9.46462 8.98235,13.62423 16.15616,13.62423c7.47524,0 15.67389,-4.88302 15.67389,-12.65968z"
                data-paper-data="{&quot;glyphName&quot;:&quot;C&quot;,&quot;glyphIndex&quot;:7,&quot;word&quot;:2}"
                id="element-id-78505"></path>
            <path
                d="M413.62351,300.16593h-8.13837c-1.38654,0 -1.80853,0.12057 -3.01421,1.44682l-12.47883,13.7448v-13.44338c0,-1.38654 -0.66313,-1.74824 -1.68796,-1.74824h-5.96814c-1.1454,0 -1.74824,0.36171 -1.74824,1.74824v36.17052c0,1.38654 0.60284,1.74824 1.74824,1.74824h5.96814c1.02483,0 1.68796,-0.36171 1.68796,-1.74824v-10.73059l3.73762,-3.91847c3.25535,5.42558 8.62064,14.46821 8.62064,14.46821c0.78369,1.26597 1.56739,1.92909 3.01421,1.92909h7.35467c1.1454,0 1.38654,-1.1454 0.90426,-1.92909l-12.9611,-21.34061l13.56394,-14.70934c0.54256,-0.54256 0.54256,-1.68796 -0.60284,-1.68796z"
                data-paper-data="{&quot;glyphName&quot;:&quot;K&quot;,&quot;glyphIndex&quot;:8,&quot;word&quot;:2}"
                id="element-id-35497"></path>
            <path
                d="M447.08124,331.45343h-26.64562c-1.08512,0 -1.74824,0.36171 -1.74824,1.74824v4.9433c0,1.38654 0.66313,1.74824 1.74824,1.74824h26.64562c1.08512,0 1.74824,-0.36171 1.74824,-1.74824v-4.9433c0,-1.38654 -0.66313,-1.74824 -1.74824,-1.74824zM444.06703,315.77954h-20.6172c-1.08512,0 -1.74824,0.36171 -1.74824,1.74824v4.9433c0,1.38654 0.66313,1.74824 1.74824,1.74824h20.6172c1.08512,0 1.74824,-0.36171 1.74824,-1.74824v-4.9433c0,-1.38654 -0.66313,-1.74824 -1.74824,-1.74824zM447.08124,300.22622h-26.64562c-1.08512,0 -1.74824,0.36171 -1.74824,1.74824v4.9433c0,1.38654 0.66313,1.74824 1.74824,1.74824h26.64562c1.08512,0 1.74824,-0.36171 1.74824,-1.74824v-4.9433c0,-1.38654 -0.66313,-1.74824 -1.74824,-1.74824z"
                data-paper-data="{&quot;glyphName&quot;:&quot;ξ&quot;,&quot;glyphIndex&quot;:9,&quot;word&quot;:2}"
                id="element-id-27480"></path>
            <path
                d="M483.25176,300.16593h-27.97187c-1.38654,0 -1.74824,0.66313 -1.74824,1.74824v5.00359c0,1.08512 0.36171,1.74824 1.74824,1.74824h9.28377v29.41869c0,1.38654 0.66313,1.74824 1.74824,1.74824h5.96814c1.08512,0 1.74824,-0.36171 1.74824,-1.74824v-29.41869h9.22348c1.38654,0 1.74824,-0.66313 1.74824,-1.74824v-5.00359c0,-1.08512 -0.36171,-1.74824 -1.74824,-1.74824z"
                data-paper-data="{&quot;glyphName&quot;:&quot;T&quot;,&quot;glyphIndex&quot;:10,&quot;lastGlyphOfWord&quot;:true,&quot;word&quot;:2}"
                id="element-id-80267"></path>
        </g>

    </g>


</svg>